
<svg width="19px" height="16px" viewBox="0 0 19 16" version="1.1" xmlns="http://www.w3.org/2000/svg" xmlns:xlink="http://www.w3.org/1999/xlink">
  <!-- Generator: Sketch 50.2 (55047) - http://www.bohemiancoding.com/sketch -->
  <desc>Created with Sketch.</desc>
  <defs></defs>
  <g id="Mobile" stroke="none" stroke-width="1" fill="none" fill-rule="evenodd">
    <g id="Av-2-iPhone-X-v2-Copy-4" transform="translate(-341.000000, -108.000000)" fill="#767B85" fill-rule="nonzero">
      <g id="chat" transform="translate(341.000000, 108.000000)">
        <path d="M14.6818182,8.51028534 L14.6818182,1.70962177 C14.6818182,0.767816855 13.926902,0 13.0009211,0 L1.68089712,0 C0.754916183,0 0,0.767816855 0,1.70962177 L0,8.51028534 C0,9.45209025 0.754916183,10.2199071 1.68089712,10.2199071 L2.16062218,10.2199071 L2.16062218,12.2699403 C2.16062218,12.6481752 2.46184489,12.9545455 2.83744358,12.9545455 C3.03082113,12.9545455 3.21676108,12.8675514 3.34691904,12.7162575 L5.47035323,10.2161248 L13.0046399,10.2161248 C13.926902,10.2199071 14.6818182,9.45209025 14.6818182,8.51028534 Z M5.25838169,9.29323159 C5.12450493,9.29323159 5.00178456,9.34996682 4.91253339,9.45209025 L3.06800912,11.6193762 L3.06800912,9.75467817 C3.06800912,9.49747843 2.86347518,9.28944924 2.61059685,9.28944924 L1.68089712,9.28944924 C1.25695404,9.28944924 0.911105738,8.93769078 0.911105738,8.50650299 L0.911105738,1.70962177 C0.911105738,1.27843397 1.25695404,0.926675514 1.68089712,0.926675514 L13.0009211,0.926675514 C13.4248641,0.926675514 13.7707124,1.27843397 13.7707124,1.70962177 L13.7707124,8.51028534 C13.7707124,8.94147313 13.4248641,9.29323159 13.0009211,9.29323159 L5.25838169,9.29323159 Z" id="Shape"></path>
        <path d="M15.5523575,15.3072361 C15.6865816,15.4622672 15.8783304,15.5454545 16.0739141,15.5454545 C16.1544486,15.5454545 16.238818,15.5303296 16.3193525,15.5000796 C16.5954707,15.397986 16.7718795,15.1484238 16.7718795,14.857268 L16.7718795,12.8078331 L17.2665913,12.8078331 C18.2215001,12.8078331 19,12.0402404 19,11.0987104 L19,4.30003184 C19,3.35850183 18.2215001,2.59090909 17.2665913,2.59090909 C17.005813,2.59090909 16.7948894,2.79887757 16.7948894,3.05222098 C16.7948894,3.30934565 17.005813,3.51731412 17.2665913,3.51731412 C17.7037785,3.51731412 18.0604311,3.86896991 18.0604311,4.30003184 L18.0604311,11.0987104 C18.0604311,11.5297723 17.7037785,11.8814281 17.2665913,11.8814281 L16.3040126,11.8814281 C16.0432343,11.8814281 15.8323107,12.0893966 15.8323107,12.3465213 L15.8323107,14.2106751 L13.9301631,12.0440217 C13.8419587,11.941928 13.7115695,11.8852094 13.5735104,11.8852094 L6.51715647,11.8852094 C6.25637817,11.8852094 6.04545455,12.0931778 6.04545455,12.3503025 C6.04545455,12.6074272 6.25637817,12.8153956 6.51715647,12.8153956 L13.3587518,12.8153956 L15.5523575,15.3072361 Z" id="Shape"></path>
        <circle id="Oval" cx="7.34090909" cy="4.75" r="1.29545455"></circle>
        <circle id="Oval" cx="9.93181818" cy="4.75" r="1.29545455"></circle>
        <circle id="Oval" cx="4.75" cy="4.75" r="1.29545455"></circle>
      </g>
    </g>
  </g>
</svg>
